<svg xmlns="http://www.w3.org/2000/svg" width="17.056" height="21" viewBox="0 0 17.056 21">
  <g id="delete" transform="translate(0.003 0.001)">
    <path id="Path_35594" data-name="Path 35594" d="M222.89,154.7a.492.492,0,0,0-.492.492v9.295a.492.492,0,1,0,.984,0v-9.295A.492.492,0,0,0,222.89,154.7Zm0,0" transform="translate(-211.464 -147.096)" fill="#e31616"/>
    <path id="Path_35595" data-name="Path 35595" d="M104.89,154.7a.492.492,0,0,0-.492.492v9.295a.492.492,0,1,0,.984,0v-9.295A.492.492,0,0,0,104.89,154.7Zm0,0" transform="translate(-99.267 -147.096)" fill="#e31616"/>
    <path id="Path_35596" data-name="Path 35596" d="M1.393,6.25V18.367a2.713,2.713,0,0,0,.721,1.871A2.422,2.422,0,0,0,3.872,21h9.3a2.421,2.421,0,0,0,1.757-.76,2.713,2.713,0,0,0,.721-1.871V6.25a1.879,1.879,0,0,0-.482-3.694H12.656V1.941A1.932,1.932,0,0,0,10.708,0H6.341A1.932,1.932,0,0,0,4.393,1.941v.615H1.875A1.879,1.879,0,0,0,1.393,6.25ZM13.177,20.015h-9.3a1.558,1.558,0,0,1-1.495-1.648V6.294H14.672V18.367a1.558,1.558,0,0,1-1.495,1.648ZM5.377,1.941A.947.947,0,0,1,6.341.982h4.367a.947.947,0,0,1,.964.959v.615H5.377Zm-3.5,1.6h13.3a.885.885,0,0,1,0,1.77H1.875a.885.885,0,1,1,0-1.77Zm0,0" transform="translate(0 0)" fill="#e31616"/>
    <path id="Path_35597" data-name="Path 35597" d="M163.89,154.7a.492.492,0,0,0-.492.492v9.295a.492.492,0,1,0,.984,0v-9.295A.492.492,0,0,0,163.89,154.7Zm0,0" transform="translate(-155.365 -147.096)" fill="#e31616"/>
  </g>
</svg>
