<svg xmlns="http://www.w3.org/2000/svg" width="23.996" height="21.651" viewBox="0 0 23.996 21.651">
  <path id="diamond" d="M23.49,9.718A.394.394,0,0,0,23.5,9.67a.459.459,0,0,0,0-.057.334.334,0,0,0-.008-.048.387.387,0,0,0-.017-.055c0-.009,0-.019-.009-.028s-.009-.012-.012-.018-.005-.014-.009-.02L19.522,3.176a.4.4,0,0,0-.063-.077h0a.385.385,0,0,0-.116-.072c-.005,0-.009-.007-.015-.009l-.013,0a.384.384,0,0,0-.123-.022H4.307a.383.383,0,0,0-.121.022l-.013,0c-.006,0-.009.007-.015.009a.39.39,0,0,0-.112.069l-.007,0a.394.394,0,0,0-.064.078L.058,9.443c0,.006-.005.014-.009.02s-.009.012-.012.018S.032,9.5.028,9.51a.387.387,0,0,0-.017.055A.4.4,0,0,0,0,9.613.307.307,0,0,0,0,9.67a.394.394,0,0,0,.005.048.352.352,0,0,0,.014.056.4.4,0,0,0,.018.045c0,.007,0,.015.009.022s.016.02.023.031A.238.238,0,0,0,.084,9.9l11.355,14.1,0,0,0,0,0,0a.385.385,0,0,0,.116.092l.035.017a.387.387,0,0,0,.15.034.4.4,0,0,0,.134-.024c.007,0,.011-.008.018-.011a.358.358,0,0,0,.054-.033.379.379,0,0,0,.081-.064c.005-.006.014-.009.019-.015L23.412,9.9c.006-.008.009-.017.015-.025a.342.342,0,0,0,.023-.031c0-.007.005-.015.009-.022a.37.37,0,0,0,.018-.045A.445.445,0,0,0,23.49,9.718ZM12.571,3.776h6.055l-1.9,5.11Zm3.446,5.484H7.479l4.269-5.254Zm-9.271-.34L4.866,3.776h6.059Zm9.546,1.123-4.612,12.38L7.156,10.043Zm2.988-5.776L22.4,9.26H17.419ZM4.213,4.272,6.036,9.259H1.1Zm2.109,5.771,4.245,11.619L1.208,10.043Zm6.365,11.919,4.441-11.919h5.161Z" transform="translate(0.25 -2.742)" stroke="#000" stroke-width="0.5"/>
</svg>
