<svg xmlns="http://www.w3.org/2000/svg" width="22.01" height="22.009" viewBox="0 0 22.01 22.009">
  <g id="home_dashboard" transform="translate(-1.996 -1.994)">
    <path id="Path_35525" data-name="Path 35525" d="M17.573,24H8.427a3.929,3.929,0,0,1-4.07-3.74v-4.9a.786.786,0,0,1,1.572,0v4.9a2.357,2.357,0,0,0,2.5,2.169h9.147a2.357,2.357,0,0,0,2.5-2.169v-4.9a.786.786,0,1,1,1.572,0v4.9A3.929,3.929,0,0,1,17.573,24Zm6.2-10.443a.786.786,0,0,0,0-1.116L13.558,2.227a.786.786,0,0,0-1.116,0L2.227,12.442a.789.789,0,0,0,1.116,1.116L13,3.892l9.657,9.665a.786.786,0,0,0,1.116,0Z"/>
  </g>
</svg>
