<svg xmlns="http://www.w3.org/2000/svg" width="80.655" height="80.777" viewBox="0 0 80.655 80.777">
  <g id="order-delivery" transform="translate(0 0.1)" opacity="0.2">
    <g id="Group_6043" data-name="Group 6043" transform="translate(0 -0.1)">
      <path id="Path_35162" data-name="Path 35162" d="M58.78,75.666a1.155,1.155,0,0,0-1.222,1.222v1.344H2.444V15.3H14.787a13.316,13.316,0,0,0-.489,4.644,1.155,1.155,0,0,0,1.222,1.222H44.6a1.155,1.155,0,0,0,1.222-1.222,13.316,13.316,0,0,0-.489-4.644H57.68V23.73a1.222,1.222,0,1,0,2.444,0V14.076A1.155,1.155,0,0,0,58.9,12.854H44.238a12.777,12.777,0,0,0-5.621-5.133A8.542,8.542,0,0,0,30.062-.1a8.451,8.451,0,0,0-8.554,7.821,12.721,12.721,0,0,0-5.621,5.133H1.222A1.155,1.155,0,0,0,0,14.076V79.455a1.155,1.155,0,0,0,1.222,1.222H58.78A1.155,1.155,0,0,0,60,79.455V76.888a1.314,1.314,0,0,0-1.222-1.222ZM23.1,9.676A1.309,1.309,0,0,0,23.83,8.21a5.9,5.9,0,0,1,6.11-5.744A5.9,5.9,0,0,1,36.05,8.21a1.309,1.309,0,0,0,.733,1.466,9.873,9.873,0,0,1,6.477,9.043H16.742A10.011,10.011,0,0,1,23.1,9.676Z" transform="translate(0 0.1)"/>
    </g>
    <g id="Group_6044" data-name="Group 6044" transform="translate(25.174 4.788)">
      <path id="Path_35163" data-name="Path 35163" d="M25.366,13.432a4.772,4.772,0,0,0,4.766-4.766A4.7,4.7,0,0,0,25.366,3.9a4.766,4.766,0,0,0,0,9.532Zm0-7.088a2.32,2.32,0,0,1,2.322,2.322,2.247,2.247,0,0,1-2.322,2.322,2.322,2.322,0,1,1,0-4.644Z" transform="translate(-20.6 -3.9)"/>
    </g>
    <g id="Group_6045" data-name="Group 6045" transform="translate(7.21 27.274)">
      <path id="Path_35164" data-name="Path 35164" d="M16.654,23.522A1.155,1.155,0,0,0,15.432,22.3H7.122A1.155,1.155,0,0,0,5.9,23.522v8.921a1.155,1.155,0,0,0,1.222,1.222h8.31a1.155,1.155,0,0,0,1.222-1.222ZM14.21,31.1H8.344V24.622H14.21Z" transform="translate(-5.9 -22.3)"/>
    </g>
    <g id="Group_6046" data-name="Group 6046" transform="translate(7.21 43.649)">
      <path id="Path_35165" data-name="Path 35165" d="M16.654,36.922A1.155,1.155,0,0,0,15.432,35.7H7.122A1.155,1.155,0,0,0,5.9,36.922v8.921a1.155,1.155,0,0,0,1.222,1.222h8.31a1.155,1.155,0,0,0,1.222-1.222Zm-2.444,7.7H8.344V38.144H14.21Z" transform="translate(-5.9 -35.7)"/>
    </g>
    <g id="Group_6047" data-name="Group 6047" transform="translate(7.21 60.146)">
      <path id="Path_35166" data-name="Path 35166" d="M15.432,49.2H7.122A1.155,1.155,0,0,0,5.9,50.422v8.921a1.155,1.155,0,0,0,1.222,1.222h8.31a1.155,1.155,0,0,0,1.222-1.222V50.422A1.225,1.225,0,0,0,15.432,49.2ZM14.21,58.121H8.344V51.644H14.21Z" transform="translate(-5.9 -49.2)"/>
    </g>
    <g id="Group_6048" data-name="Group 6048" transform="translate(33.85 26.846)">
      <path id="Path_35167" data-name="Path 35167" d="M73.771,34.231,51.53,22.133a.912.912,0,0,0-1.1,0c-1.466.733-19.186,10.265-22.119,11.854a1.458,1.458,0,0,0-.611,1.1V54.64a1.088,1.088,0,0,0,.611.978L50.43,69.548a1.11,1.11,0,0,0,1.222,0L73.893,57.695a1.283,1.283,0,0,0,.611-1.1V35.331A1.307,1.307,0,0,0,73.771,34.231Zm-22.73-9.654,19.8,10.754-5.133,2.811-19.8-10.876Zm9.776,16.864L40.287,30.321l2.933-1.589L64.361,40.342V46.33l-2.933,1.589V42.541a1.146,1.146,0,0,0-.611-1.1Zm-23.1-9.776L57.64,42.541l-6.6,3.666L31.366,35.087Zm-7.7,22.119V37.042L49.7,48.163V66.249ZM52.263,66.371V48.285l6.721-3.666V50a1.283,1.283,0,0,0,.611,1.1,1.11,1.11,0,0,0,1.222,0l5.377-2.933a1.283,1.283,0,0,0,.611-1.1V40.342l5.255-2.811V55.984Z" transform="translate(-27.7 -21.95)"/>
    </g>
    <g id="Group_6049" data-name="Group 6049" transform="translate(20.164 31.673)">
      <path id="Path_35168" data-name="Path 35168" d="M36.419,27.122A1.155,1.155,0,0,0,35.2,25.9H17.722a1.222,1.222,0,1,0,0,2.444H35.2A1.225,1.225,0,0,0,36.419,27.122Z" transform="translate(-16.5 -25.9)"/>
    </g>
    <g id="Group_6050" data-name="Group 6050" transform="translate(20.041 48.171)">
      <path id="Path_35169" data-name="Path 35169" d="M27.765,39.4H17.622a1.222,1.222,0,1,0,0,2.444H27.765a1.155,1.155,0,0,0,1.222-1.222A1.225,1.225,0,0,0,27.765,39.4Z" transform="translate(-16.4 -39.4)"/>
    </g>
    <g id="Group_6051" data-name="Group 6051" transform="translate(19.308 64.546)">
      <path id="Path_35170" data-name="Path 35170" d="M15.8,54.022a1.155,1.155,0,0,0,1.222,1.222H33.031a1.222,1.222,0,0,0,0-2.444H17.022A1.314,1.314,0,0,0,15.8,54.022Z" transform="translate(-15.8 -52.8)"/>
    </g>
  </g>
</svg>
