<svg xmlns="http://www.w3.org/2000/svg" width="19.651" height="19.649" viewBox="0 0 19.651 19.649">
  <path id="pen" d="M17.394.762a2.706,2.706,0,0,0-3.824,0l-.957.962L2.423,11.908,2.4,11.93c-.005.005-.005.011-.011.011-.011.016-.027.032-.038.049s-.006.005-.006.011-.016.027-.027.043-.005.011-.011.016-.011.027-.016.043-.005.005-.005.011l-2.261,6.8a.532.532,0,0,0,.13.552.544.544,0,0,0,.384.157.638.638,0,0,0,.173-.027l6.793-2.266c.005,0,.005,0,.011-.005a.2.2,0,0,0,.049-.022.019.019,0,0,0,.011-.005c.016-.011.038-.022.054-.033s.032-.027.049-.038.011-.006.011-.011.016-.011.022-.022L18.859,6.045a2.706,2.706,0,0,0,0-3.824ZM7.334,16.056,3.57,12.292l9.421-9.421,3.764,3.764ZM3.04,13.292l3.288,3.288L1.39,18.225Zm15.057-8-.573.579L13.759,2.1l.579-.579a1.622,1.622,0,0,1,2.293,0L18.1,3A1.628,1.628,0,0,1,18.1,5.288Zm0,0" transform="translate(0.001 0.029)" fill="#3696a6"/>
</svg>
