<svg xmlns="http://www.w3.org/2000/svg" width="18" height="18" viewBox="0 0 18 18">
  <g id="question_mark" transform="translate(0.496)">
    <g id="Rectangle_3259" data-name="Rectangle 3259" transform="translate(-0.496)" fill="#fff" stroke="#e6a300" stroke-width="1">
      <rect width="18" height="18" rx="9" stroke="none"/>
      <rect x="0.5" y="0.5" width="17" height="17" rx="8.5" fill="none"/>
    </g>
    <path id="Icon_open-question-mark" data-name="Icon open-question-mark" d="M2.864,0A3,3,0,0,0,.684.765,2.53,2.53,0,0,0,0,2.25L1.16,2.4a1.405,1.405,0,0,1,.359-.8A1.722,1.722,0,0,1,2.864,1.16a2.046,2.046,0,0,1,1.415.394.969.969,0,0,1,.325.765c0,.962-.394,1.229-.974,1.739A3.305,3.305,0,0,0,2.284,6.667v.29h1.16v-.29a1.929,1.929,0,0,1,.939-1.739,3.325,3.325,0,0,0,1.38-2.609A2.228,2.228,0,0,0,5.079.684,3.2,3.2,0,0,0,2.864,0Zm-.58,8.117v1.16h1.16V8.117Z" transform="translate(6.23 4)" fill="#e6a300"/>
  </g>
</svg>
