<svg xmlns="http://www.w3.org/2000/svg" width="77.998" height="77.998" viewBox="0 0 77.998 77.998">
  <g id="radar" opacity="0.2">
    <g id="Group_955" data-name="Group 955">
      <g id="Group_954" data-name="Group 954" transform="translate(0 0)">
        <path id="Path_1394" data-name="Path 1394" d="M77.617.381a1.3,1.3,0,0,0-1.838,0L65.634,10.526A38.994,38.994,0,1,0,39,78a38.815,38.815,0,0,0,14.26-2.69,1.3,1.3,0,0,0-.95-2.419A36.4,36.4,0,1,1,39,2.6,36.139,36.139,0,0,1,63.8,12.36l-3.693,3.693A31.182,31.182,0,1,0,44.428,69.727a1.3,1.3,0,1,0-.452-2.56A28.6,28.6,0,1,1,39,10.4,28.377,28.377,0,0,1,58.274,17.89l-3.7,3.7a23.309,23.309,0,0,0-34.27,3.373,4.5,4.5,0,0,0-1.453-.26,4.543,4.543,0,0,0-2.466,8.363A23.327,23.327,0,0,0,33.5,61.747a1.242,1.242,0,0,0,.307.036,1.3,1.3,0,0,0,.3-2.564A20.741,20.741,0,0,1,18.878,33.8,4.554,4.554,0,0,0,23.4,29.25a4.507,4.507,0,0,0-.978-2.784,20.719,20.719,0,0,1,30.313-3.041L49.062,27.1A15.582,15.582,0,0,0,23.4,39a15.633,15.633,0,0,0,6.64,12.763,1.3,1.3,0,1,0,1.5-2.125A13,13,0,0,1,39,26a12.889,12.889,0,0,1,8.223,2.938l-3.71,3.711A7.8,7.8,0,1,0,39,46.8a1.3,1.3,0,0,0,0-2.6,5.2,5.2,0,1,1,0-10.4,5.132,5.132,0,0,1,2.625.737L38.082,38.08a1.3,1.3,0,1,0,1.838,1.838l3.545-3.544A5.147,5.147,0,0,1,44.2,39a1.3,1.3,0,1,0,2.6,0,7.749,7.749,0,0,0-1.449-4.512L66.576,13.261h0L77.617,2.219A1.3,1.3,0,0,0,77.617.381Z" transform="translate(-0.001 0)"/>
      </g>
    </g>
    <g id="Group_957" data-name="Group 957" transform="translate(53.299 42.9)">
      <g id="Group_956" data-name="Group 956">
        <path id="Path_1395" data-name="Path 1395" d="M355.077,281.611a5.2,5.2,0,1,0,5.2,5.2A5.2,5.2,0,0,0,355.077,281.611Z" transform="translate(-349.877 -281.611)"/>
      </g>
    </g>
    <g id="Group_959" data-name="Group 959" transform="translate(67.599 24.701)">
      <g id="Group_958" data-name="Group 958">
        <path id="Path_1396" data-name="Path 1396" d="M448.943,162.144a5.2,5.2,0,1,0,5.2,5.2A5.2,5.2,0,0,0,448.943,162.144Z" transform="translate(-443.743 -162.144)"/>
      </g>
    </g>
    <g id="Group_961" data-name="Group 961" transform="translate(61.099 67.599)">
      <g id="Group_960" data-name="Group 960">
        <path id="Path_1397" data-name="Path 1397" d="M406.277,443.744a5.2,5.2,0,1,0,5.2,5.2A5.2,5.2,0,0,0,406.277,443.744Z" transform="translate(-401.077 -443.744)"/>
      </g>
    </g>
  </g>
</svg>
