<svg xmlns="http://www.w3.org/2000/svg" width="25.44" height="18.875" viewBox="0 0 25.44 18.875">
  <g id="return" transform="translate(0 0)">
    <path id="Path_35617" data-name="Path 35617" d="M.821,72.636A.82.82,0,0,1,0,71.815,5.751,5.751,0,0,1,5.745,66.07H19.7a.821.821,0,1,1,0,1.641H5.745a4.108,4.108,0,0,0-4.1,4.1.82.82,0,0,1-.821.821Zm0,0" transform="translate(0 -62.787)"/>
    <path id="Path_35618" data-name="Path 35618" d="M380.692,8.207a.82.82,0,0,1-.821-.821V.821a.821.821,0,0,1,1.276-.683l4.924,3.282a.821.821,0,0,1,0,1.366l-4.924,3.282a.819.819,0,0,1-.455.138Zm.821-5.853v3.5l2.624-1.75Zm0,0" transform="translate(-360.997 0)"/>
    <path id="Path_35619" data-name="Path 35619" d="M113.87,188.246H99.919a.821.821,0,0,1,0-1.641H113.87a4.108,4.108,0,0,0,4.1-4.1.821.821,0,1,1,1.641,0,5.751,5.751,0,0,1-5.745,5.745Zm0,0" transform="translate(-94.175 -172.653)"/>
    <path id="Path_35620" data-name="Path 35620" d="M5.744,222.924a.82.82,0,0,1-.455-.138L.365,219.5a.82.82,0,0,1,0-1.365l4.924-3.283a.821.821,0,0,1,1.276.683V222.1a.82.82,0,0,1-.821.821Zm-3.445-4.1,2.624,1.75v-3.5Zm0,0" transform="translate(0 -204.049)"/>
  </g>
</svg>
