<svg xmlns="http://www.w3.org/2000/svg" width="22.54" height="23.44" viewBox="0 0 22.54 23.44">
  <g id="shopping-bag" transform="translate(-4 -2)">
    <path id="XMLID_1124_" d="M15.27,2C12.162,2,9.635,4.253,9.635,7.023V8.7h-4.7a.991.991,0,0,0-.7.279.78.78,0,0,0-.234.65l1.6,12.834A3.626,3.626,0,0,0,9.339,25.44H21.2a3.623,3.623,0,0,0,3.733-2.979l1.6-12.834a.777.777,0,0,0-.234-.65.991.991,0,0,0-.7-.279h-4.7V7.023C20.905,4.253,18.378,2,15.27,2ZM11.513,7.023A3.574,3.574,0,0,1,15.27,3.674a3.574,3.574,0,0,1,3.757,3.349V8.7H11.513Zm13.038,3.349-1.485,11.9A1.811,1.811,0,0,1,21.2,23.766H9.339a1.812,1.812,0,0,1-1.867-1.489l-1.484-11.9H9.635v1.674a.843.843,0,1,0,0,1.674h1.878a.843.843,0,1,0,0-1.674V10.371h7.513v1.674a.843.843,0,1,0,0,1.674h1.878a.843.843,0,1,0,0-1.674V10.371Z" transform="translate(0)"/>
    <path id="XMLID_108_" d="M18.123,18.155a.71.71,0,0,1,.111,1L15.394,22.7a.71.71,0,0,1-.948.147l-2.13-1.42a.71.71,0,1,1,.788-1.181l1.588,1.058,2.433-3.041A.71.71,0,0,1,18.123,18.155Z" transform="translate(0.614 -1.927)"/>
  </g>
</svg>
