<svg xmlns="http://www.w3.org/2000/svg" width="26.228" height="21.896" viewBox="0 0 26.228 21.896">
  <g id="staff-users" transform="translate(-0.5 -3.426)">
    <path id="Path_35613" data-name="Path 35613" d="M19.12,29.108v-2.2A4.405,4.405,0,0,0,14.715,22.5H5.905A4.405,4.405,0,0,0,1.5,26.905v2.2" transform="translate(0 -4.785)" fill="none" stroke="#000" stroke-linecap="round" stroke-linejoin="round" stroke-width="2"/>
    <path id="Path_35614" data-name="Path 35614" d="M16.31,8.905A4.405,4.405,0,1,1,11.905,4.5,4.405,4.405,0,0,1,16.31,8.905Z" transform="translate(-1.595 0)" fill="none" stroke="#000" stroke-linecap="round" stroke-linejoin="round" stroke-width="2"/>
    <path id="Path_35615" data-name="Path 35615" d="M33.3,29.159v-2.2A4.405,4.405,0,0,0,30,22.7" transform="translate(-7.576 -4.837)" fill="none" stroke="#000" stroke-linecap="round" stroke-linejoin="round" stroke-width="2"/>
    <path id="Path_35616" data-name="Path 35616" d="M24,4.7a4.405,4.405,0,0,1,0,8.535" transform="translate(-5.981 -0.052)" fill="none" stroke="#000" stroke-linecap="round" stroke-linejoin="round" stroke-width="2"/>
  </g>
</svg>
