<svg xmlns="http://www.w3.org/2000/svg" width="23.619" height="26.629" viewBox="0 0 23.619 26.629">
  <g id="supply-chain" transform="translate(-28.942 0)">
    <g id="Group_7623" data-name="Group 7623" transform="translate(28.942 0)">
      <path id="Path_35588" data-name="Path 35588" d="M51,16.917v-7.2a2.08,2.08,0,1,0-2-3.472l-6.241-3.6a2.081,2.081,0,1,0-4.009,0l-1.076.622a.52.52,0,0,0,.52.9l1.078-.622a2.09,2.09,0,0,0,2.967,0l6.241,3.6A2.094,2.094,0,0,0,49.96,9.713v7.2a2.094,2.094,0,0,0-1.485,2.571l-6.241,3.6a2.09,2.09,0,0,0-2.967,0l-6.241-3.6a2.094,2.094,0,0,0-1.485-2.571v-7.2a2.094,2.094,0,0,0,1.485-2.571l1.109-.64a.52.52,0,0,0-.52-.9l-1.11.641a2.08,2.08,0,1,0-2,3.472v7.2a2.08,2.08,0,1,0,2,3.472l6.241,3.6a2.081,2.081,0,1,0,4.009,0L49,20.389a2.08,2.08,0,1,0,2-3.472ZM40.751,3.121a1.04,1.04,0,1,1,1.04-1.04A1.041,1.041,0,0,1,40.751,3.121ZM29.982,7.7a1.04,1.04,0,1,1,1.04,1.04A1.041,1.041,0,0,1,29.982,7.7Zm1.04,12.274a1.04,1.04,0,1,1,1.04-1.04A1.041,1.041,0,0,1,31.022,19.972Zm9.729,5.617a1.04,1.04,0,1,1,1.04-1.04A1.041,1.041,0,0,1,40.751,25.589ZM49.44,7.7a1.04,1.04,0,1,1,1.04,1.04A1.041,1.041,0,0,1,49.44,7.7Zm1.04,12.274a1.04,1.04,0,1,1,1.04-1.04A1.041,1.041,0,0,1,50.48,19.972Z" transform="translate(-28.942 0)"/>
      <path id="Path_35589" data-name="Path 35589" d="M126.005,111.566v7.207a.52.52,0,0,0,.26.45l6.241,3.6a.52.52,0,0,0,.52,0l6.241-3.6a.52.52,0,0,0,.26-.45v-7.207a.52.52,0,0,0-.26-.45l-6.241-3.6a.52.52,0,0,0-.52,0l-6.241,3.6a.52.52,0,0,0-.26.45Zm1.04.9,5.2,3v6.005l-5.2-3Zm10.922-.9-5.2,3-2.08-1.2,5.2-3Zm-4.681,9.909v-6.005l5.2-3v6.005Zm-.52-12.912,2.08,1.2-5.2,3-2.08-1.2Z" transform="translate(-120.957 -101.855)"/>
      <path id="Path_35590" data-name="Path 35590" d="M292.952,288.161l-1.855,1.071a.52.52,0,0,0,.52.9l1.855-1.071a.52.52,0,1,0-.52-.9Z" transform="translate(-277.216 -273.108)"/>
      <path id="Path_35591" data-name="Path 35591" d="M153.367,84.862a.52.52,0,0,0,0-1.04h0A.52.52,0,0,0,153.367,84.862Z" transform="translate(-146.406 -79.463)"/>
    </g>
  </g>
</svg>
