<svg id="transaction" xmlns="http://www.w3.org/2000/svg" width="23.736" height="23.736" viewBox="0 0 23.736 23.736">
  <path id="Path_35600" data-name="Path 35600" d="M13.868,25.736A11.868,11.868,0,1,0,2,13.868,11.881,11.881,0,0,0,13.868,25.736Zm0-22.04A10.172,10.172,0,1,1,3.7,13.868,10.181,10.181,0,0,1,13.868,3.7Z" transform="translate(-2 -2)"/>
  <path id="Path_35601" data-name="Path 35601" d="M9.848,14.238H20.02a.848.848,0,1,0,0-1.7H11.432l.817-1.225a.848.848,0,0,0-1.411-.94l-1.7,2.543a.848.848,0,0,0,.705,1.318Z" transform="translate(-3.066 -3.218)"/>
  <path id="Path_35602" data-name="Path 35602" d="M9.848,18.7h8.589l-.817,1.225a.848.848,0,1,0,1.411.94l1.7-2.543A.848.848,0,0,0,20.02,17H9.848a.848.848,0,1,0,0,1.7Z" transform="translate(-3.066 -4.284)"/>
</svg>
