<svg xmlns="http://www.w3.org/2000/svg" width="76.152" height="76.152" viewBox="0 0 76.152 76.152">
  <g id="user_icon" transform="translate(0.5 0.5)" opacity="0.2">
    <path id="Path_1382" data-name="Path 1382" d="M224.21,6.605a6.605,6.605,0,1,0-6.605,6.605A6.613,6.613,0,0,0,224.21,6.605Zm-6.605,2.2a2.2,2.2,0,1,1,2.2-2.2A2.2,2.2,0,0,1,217.605,8.807Z" transform="translate(-180.029 0)" stroke="#fff" stroke-width="1"/>
    <path id="Path_1383" data-name="Path 1383" d="M203.017,101.155a11.01,11.01,0,1,0-22.017,0v2.2h22.017Zm-17.238-2.2a6.54,6.54,0,0,1,12.459,0Z" transform="translate(-154.433 -76.79)" stroke="#fff" stroke-width="1"/>
    <path id="Path_1384" data-name="Path 1384" d="M404.21,187.605a6.605,6.605,0,1,0-6.605,6.605A6.613,6.613,0,0,0,404.21,187.605Zm-6.605,2.2a2.2,2.2,0,1,1,2.2-2.2A2.2,2.2,0,0,1,397.605,189.807Z" transform="translate(-333.608 -154.433)" stroke="#fff" stroke-width="1"/>
    <path id="Path_1385" data-name="Path 1385" d="M383.164,282.009a11.082,11.082,0,0,0-22.164,0v2.2h22.164Zm-17.383-2.2a6.617,6.617,0,0,1,6.228-4.4,6.852,6.852,0,0,1,6.35,4.4Z" transform="translate(-308.012 -231.222)" stroke="#fff" stroke-width="1"/>
    <path id="Path_1386" data-name="Path 1386" d="M44.21,187.605a6.605,6.605,0,1,0-6.605,6.605A6.613,6.613,0,0,0,44.21,187.605Zm-6.605,2.2a2.2,2.2,0,1,1,2.2-2.2A2.2,2.2,0,0,1,37.605,189.807Z" transform="translate(-26.45 -154.433)" stroke="#fff" stroke-width="1"/>
    <path id="Path_1387" data-name="Path 1387" d="M22.164,282.009a11.082,11.082,0,0,0-22.164,0v2.2H22.164ZM4.8,279.807a6.852,6.852,0,0,1,6.35-4.4,6.617,6.617,0,0,1,6.228,4.4Z" transform="translate(0 -231.222)" stroke="#fff" stroke-width="1"/>
    <path id="Path_1388" data-name="Path 1388" d="M211,337.605A6.605,6.605,0,1,0,217.605,331,6.613,6.613,0,0,0,211,337.605Zm8.807,0a2.2,2.2,0,1,1-2.2-2.2A2.2,2.2,0,0,1,219.807,337.605Z" transform="translate(-180.029 -282.415)" stroke="#fff" stroke-width="1"/>
    <path id="Path_1389" data-name="Path 1389" d="M203.017,433.009a11.009,11.009,0,1,0-22.017,0v2.2h22.017Zm-17.237-2.2a6.606,6.606,0,0,1,12.456,0Z" transform="translate(-154.433 -360.058)" stroke="#fff" stroke-width="1"/>
    <path id="Path_1390" data-name="Path 1390" d="M65.4,71.155A6.769,6.769,0,0,1,72.009,64.4h2.2V60h-2.2A11.127,11.127,0,0,0,61,71.155v2.2h4.4Z" transform="translate(-52.046 -51.193)" stroke="#fff" stroke-width="1"/>
    <path id="Path_1391" data-name="Path 1391" d="M369.807,71.155v2.2h4.4v-2.2A11.127,11.127,0,0,0,363.2,60H361v4.4h2.2A6.769,6.769,0,0,1,369.807,71.155Z" transform="translate(-308.012 -51.193)" stroke="#fff" stroke-width="1"/>
    <path id="Path_1392" data-name="Path 1392" d="M61,391v2.2a11.127,11.127,0,0,0,11.009,11.155h2.2v-4.4h-2.2A6.769,6.769,0,0,1,65.4,393.2V391Z" transform="translate(-52.046 -333.608)" stroke="#fff" stroke-width="1"/>
    <path id="Path_1393" data-name="Path 1393" d="M374.21,393.2V391h-4.4v2.2a6.769,6.769,0,0,1-6.605,6.752H361v4.4h2.2A11.127,11.127,0,0,0,374.21,393.2Z" transform="translate(-308.012 -333.608)" stroke="#fff" stroke-width="1"/>
  </g>
</svg>
