<svg xmlns="http://www.w3.org/2000/svg" width="24.173" height="21.151" viewBox="0 0 24.173 21.151">
  <g id="vendor" transform="translate(0 -32)">
    <g id="Group_7530" data-name="Group 7530" transform="translate(0 32)">
      <path id="Path_35584" data-name="Path 35584" d="M24.15,38.616l-1.511-6.043A.755.755,0,0,0,21.907,32H2.266a.755.755,0,0,0-.733.573L.023,38.616A.739.739,0,0,0,0,38.8a3.831,3.831,0,0,0,1.511,3.068V52.4a.756.756,0,0,0,.755.755H9.82a.756.756,0,0,0,.755-.755V47.108H13.6V52.4a.756.756,0,0,0,.755.755h7.554a.756.756,0,0,0,.755-.755V41.867A3.831,3.831,0,0,0,24.173,38.8.739.739,0,0,0,24.15,38.616Zm-3,13.025H15.108V46.353a.756.756,0,0,0-.755-.755H9.82a.756.756,0,0,0-.755.755V51.64H3.022V42.515a3.351,3.351,0,0,0,.567.06,3.523,3.523,0,0,0,2.833-1.461,3.477,3.477,0,0,0,5.666,0,3.477,3.477,0,0,0,5.666,0,3.523,3.523,0,0,0,2.833,1.461,3.351,3.351,0,0,0,.567-.06Zm-.567-10.576A2.181,2.181,0,0,1,18.507,38.8.755.755,0,0,0,17,38.8a2.181,2.181,0,0,1-2.077,2.266A2.181,2.181,0,0,1,12.842,38.8a.755.755,0,1,0-1.511,0,2.181,2.181,0,0,1-2.077,2.266A2.181,2.181,0,0,1,7.176,38.8a.755.755,0,1,0-1.511,0,2.181,2.181,0,0,1-2.077,2.266,2.173,2.173,0,0,1-2.076-2.179l1.345-5.375H21.317l1.345,5.375A2.175,2.175,0,0,1,20.585,41.065Z" transform="translate(0 -32)"/>
    </g>
  </g>
</svg>
