<svg id="warning" xmlns="http://www.w3.org/2000/svg" width="21.74" height="19.928" viewBox="0 0 21.74 19.928">
  <path id="Path_35622" data-name="Path 35622" d="M13.474,2.514a3,3,0,0,0-5.21,0L.375,16.57A2.879,2.879,0,0,0,.4,19.459,2.956,2.956,0,0,0,2.98,20.927H18.759a2.956,2.956,0,0,0,2.579-1.468,2.879,2.879,0,0,0,.026-2.889Zm6.3,16.032a1.162,1.162,0,0,1-1.015.569H2.98a1.162,1.162,0,0,1-1.015-.572,1.071,1.071,0,0,1-.01-1.087L9.844,3.4a1.227,1.227,0,0,1,2.051,0l7.889,14.056a1.071,1.071,0,0,1-.01,1.088Z" transform="translate(0.001 -0.999)"/>
  <path id="Path_35623" data-name="Path 35623" d="M12,7a1,1,0,0,0-1,1v6a1,1,0,0,0,2,0V8A1,1,0,0,0,12,7Z" transform="translate(-1.13 -1.888)"/>
  <circle id="Ellipse_1542" data-name="Ellipse 1542" cx="1" cy="1" r="1" transform="translate(9.87 14.342)"/>
</svg>
